<svg id="Layer_1" data-name="Layer 1" xmlns="http://www.w3.org/2000/svg" xmlns:xlink="http://www.w3.org/1999/xlink" viewBox="0 0 145.65 199.34"><defs><style>.cls-1{fill:#f2722b;}.cls-1,.cls-10,.cls-11,.cls-2,.cls-3,.cls-4,.cls-5,.cls-6,.cls-7,.cls-8,.cls-9{fill-rule:evenodd;}.cls-2{fill:#f9c750;}.cls-11,.cls-3{fill:#0e122c;}.cls-10,.cls-3,.cls-5{opacity:0.25;}.cls-4{fill:#ee4347;}.cls-5{fill:#731012;}.cls-6{fill:url(#linear-gradient);}.cls-7{fill:#f79521;}.cls-8{fill:#fff;}.cls-9{fill:#6ebd44;}.cls-10{fill:#e3ea99;}</style><linearGradient id="linear-gradient" x1="41.51" y1="63.84" x2="155.36" y2="63.84" gradientUnits="userSpaceOnUse"><stop offset="0" stop-color="#f0872a"/><stop offset="1" stop-color="#ffcf4b"/></linearGradient></defs><path class="cls-1" d="M115.11,24.7A78.35,78.35,0,0,1,58,0,59.4,59.4,0,0,0,56.9,11.16a58.21,58.21,0,0,0,58.21,58.21Z" transform="translate(-27.67)"/><path class="cls-2" d="M115.11,24.7A78.35,78.35,0,0,1,58,0s11.86,39.22,57.14,39.57Z" transform="translate(-27.67)"/><path class="cls-3" d="M115.11,24.7a78.2,78.2,0,0,1-11.52-.85,58.1,58.1,0,0,0-38,18,58.17,58.17,0,0,0,49.49,27.55Z" transform="translate(-27.67)"/><path class="cls-4" d="M56.9,82.92c0,.56,0,1.11,0,1.67V199.34a58.22,58.22,0,0,0,58.21-58.21c0-.56,0-1.13,0-1.68V24.7A58.22,58.22,0,0,0,56.9,82.92Z" transform="translate(-27.67)"/><path class="cls-5" d="M115.11,24.7a43.55,43.55,0,1,0,0,87.09Z" transform="translate(-27.67)"/><path class="cls-6" d="M154.25,63.84A39.14,39.14,0,0,0,115.11,24.7V103A39.14,39.14,0,0,0,154.25,63.84Z" transform="translate(-27.67)"/><path class="cls-5" d="M154.25,63.84A39,39,0,0,0,147,41.08a68.24,68.24,0,0,0-31.85-14.86V70.89a89.94,89.94,0,0,1,33.53,13.16A38.91,38.91,0,0,0,154.25,63.84Z" transform="translate(-27.67)"/><path class="cls-2" d="M172.25,94.07A58.26,58.26,0,0,0,115.11,24.7V69.37A78.39,78.39,0,0,1,172.25,94.07Z" transform="translate(-27.67)"/><path class="cls-7" d="M172.85,90.33A58.25,58.25,0,0,0,115.11,24.7V39.57h0A58.2,58.2,0,0,1,172.85,90.33Z" transform="translate(-27.67)"/><path class="cls-8" d="M115.11,24.7a39.14,39.14,0,0,0,0,78.28Z" transform="translate(-27.67)"/><path class="cls-9" d="M99,143.93A58.23,58.23,0,0,0,57.8,72.63L27.67,185.1A58.24,58.24,0,0,0,99,143.93Z" transform="translate(-27.67)"/><path class="cls-10" d="M41.3,187.07A58.22,58.22,0,0,0,57.8,72.63L27.67,185.1l.09,0L52.15,94.07a47.32,47.32,0,0,1-10.85,93Z" transform="translate(-27.67)"/><path class="cls-11" d="M101.81,49.32a6.05,6.05,0,1,0-6,6A6.05,6.05,0,0,0,101.81,49.32Z" transform="translate(-27.67)"/></svg>